<mxfile host="app.diagrams.net" modified="2023-05-25T08:55:07.670Z" agent="Mozilla/5.0 (Windows NT 10.0; Win64; x64) AppleWebKit/537.36 (KHTML, like Gecko) Chrome/113.0.0.0 Safari/537.36" etag="otenJjY4vn3nBpfy6L6H" version="21.3.3" type="github">
  <diagram id="23iRSUPoRavnBvh4doch" name="Page-1">
    <mxGraphModel dx="362" dy="252" grid="1" gridSize="10" guides="1" tooltips="1" connect="1" arrows="1" fold="1" page="1" pageScale="1" pageWidth="827" pageHeight="1169" math="0" shadow="0">
      <root>
        <mxCell id="0" />
        <mxCell id="1" parent="0" />
        <mxCell id="l94k4rXtLdnM8GT9Tlmm-3" value="&lt;&lt;Resource&gt;&gt;&#xa;{path=/fruits}&#xa;FruitResource" style="swimlane;fontStyle=1;align=center;verticalAlign=top;childLayout=stackLayout;horizontal=1;startSize=60;horizontalStack=0;resizeParent=1;resizeParentMax=0;resizeLast=0;collapsible=1;marginBottom=0;" parent="1" vertex="1">
          <mxGeometry x="50" y="190" width="380" height="172" as="geometry" />
        </mxCell>
        <mxCell id="l94k4rXtLdnM8GT9Tlmm-5" value="" style="line;strokeWidth=1;fillColor=none;align=left;verticalAlign=middle;spacingTop=-1;spacingLeft=3;spacingRight=3;rotatable=0;labelPosition=right;points=[];portConstraint=eastwest;strokeColor=inherit;" parent="l94k4rXtLdnM8GT9Tlmm-3" vertex="1">
          <mxGeometry y="60" width="380" height="8" as="geometry" />
        </mxCell>
        <mxCell id="l94k4rXtLdnM8GT9Tlmm-6" value="&lt;&lt;GET&gt;&gt; + getFruits(): Collection&lt;Fruits&gt;" style="text;strokeColor=none;fillColor=none;align=left;verticalAlign=top;spacingLeft=4;spacingRight=4;overflow=hidden;rotatable=0;points=[[0,0.5],[1,0.5]];portConstraint=eastwest;" parent="l94k4rXtLdnM8GT9Tlmm-3" vertex="1">
          <mxGeometry y="68" width="380" height="26" as="geometry" />
        </mxCell>
        <mxCell id="l94k4rXtLdnM8GT9Tlmm-7" value="&lt;&lt;GET&gt;&gt;&lt;&lt;Path&gt;&gt;{path=/{id}} + get(id:UUID): Fruits" style="text;strokeColor=none;fillColor=none;align=left;verticalAlign=top;spacingLeft=4;spacingRight=4;overflow=hidden;rotatable=0;points=[[0,0.5],[1,0.5]];portConstraint=eastwest;" parent="l94k4rXtLdnM8GT9Tlmm-3" vertex="1">
          <mxGeometry y="94" width="380" height="26" as="geometry" />
        </mxCell>
        <mxCell id="l94k4rXtLdnM8GT9Tlmm-8" value="&lt;&lt;POST&gt;&gt; + add(fruit: Fruit): Collection&lt;Fruits&gt;" style="text;strokeColor=none;fillColor=none;align=left;verticalAlign=top;spacingLeft=4;spacingRight=4;overflow=hidden;rotatable=0;points=[[0,0.5],[1,0.5]];portConstraint=eastwest;" parent="l94k4rXtLdnM8GT9Tlmm-3" vertex="1">
          <mxGeometry y="120" width="380" height="26" as="geometry" />
        </mxCell>
        <mxCell id="l94k4rXtLdnM8GT9Tlmm-9" value="&lt;&lt;DELETE&gt;&gt;&lt;&lt;Path&gt;&gt;{path= /{id}}Â + delete(id: UUID): Collection&lt;Fruits&gt;" style="text;strokeColor=none;fillColor=none;align=left;verticalAlign=top;spacingLeft=4;spacingRight=4;overflow=hidden;rotatable=0;points=[[0,0.5],[1,0.5]];portConstraint=eastwest;" parent="l94k4rXtLdnM8GT9Tlmm-3" vertex="1">
          <mxGeometry y="146" width="380" height="26" as="geometry" />
        </mxCell>
        <mxCell id="l94k4rXtLdnM8GT9Tlmm-10" value="Fruit" style="swimlane;fontStyle=1;align=center;verticalAlign=top;childLayout=stackLayout;horizontal=1;startSize=30;horizontalStack=0;resizeParent=1;resizeParentMax=0;resizeLast=0;collapsible=1;marginBottom=0;" parent="1" vertex="1">
          <mxGeometry x="640" y="180" width="130" height="116" as="geometry" />
        </mxCell>
        <mxCell id="l94k4rXtLdnM8GT9Tlmm-14" value="- id: UUID" style="text;strokeColor=none;fillColor=none;align=left;verticalAlign=top;spacingLeft=4;spacingRight=4;overflow=hidden;rotatable=0;points=[[0,0.5],[1,0.5]];portConstraint=eastwest;" parent="l94k4rXtLdnM8GT9Tlmm-10" vertex="1">
          <mxGeometry y="30" width="130" height="26" as="geometry" />
        </mxCell>
        <mxCell id="l94k4rXtLdnM8GT9Tlmm-15" value="- name: String" style="text;strokeColor=none;fillColor=none;align=left;verticalAlign=top;spacingLeft=4;spacingRight=4;overflow=hidden;rotatable=0;points=[[0,0.5],[1,0.5]];portConstraint=eastwest;" parent="l94k4rXtLdnM8GT9Tlmm-10" vertex="1">
          <mxGeometry y="56" width="130" height="26" as="geometry" />
        </mxCell>
        <mxCell id="l94k4rXtLdnM8GT9Tlmm-16" value="- description: String" style="text;strokeColor=none;fillColor=none;align=left;verticalAlign=top;spacingLeft=4;spacingRight=4;overflow=hidden;rotatable=0;points=[[0,0.5],[1,0.5]];portConstraint=eastwest;" parent="l94k4rXtLdnM8GT9Tlmm-10" vertex="1">
          <mxGeometry y="82" width="130" height="26" as="geometry" />
        </mxCell>
        <mxCell id="l94k4rXtLdnM8GT9Tlmm-11" value="" style="line;strokeWidth=1;fillColor=none;align=left;verticalAlign=middle;spacingTop=-1;spacingLeft=3;spacingRight=3;rotatable=0;labelPosition=right;points=[];portConstraint=eastwest;strokeColor=inherit;" parent="l94k4rXtLdnM8GT9Tlmm-10" vertex="1">
          <mxGeometry y="108" width="130" height="8" as="geometry" />
        </mxCell>
        <mxCell id="l94k4rXtLdnM8GT9Tlmm-18" value="Use" style="endArrow=open;endSize=12;dashed=1;html=1;rounded=0;" parent="1" source="l94k4rXtLdnM8GT9Tlmm-3" target="l94k4rXtLdnM8GT9Tlmm-10" edge="1">
          <mxGeometry width="160" relative="1" as="geometry">
            <mxPoint x="470" y="200" as="sourcePoint" />
            <mxPoint x="630" y="200" as="targetPoint" />
          </mxGeometry>
        </mxCell>
      </root>
    </mxGraphModel>
  </diagram>
</mxfile>
